<mxfile host="65bd71144e">
    <diagram id="_QfIFRNb9WxRVqC_utFx" name="Page-1">
        <mxGraphModel dx="562" dy="482" grid="1" gridSize="10" guides="1" tooltips="1" connect="1" arrows="1" fold="1" page="1" pageScale="1" pageWidth="850" pageHeight="1100" math="0" shadow="0">
            <root>
                <mxCell id="0"/>
                <mxCell id="1" parent="0"/>
                <mxCell id="2" value="" style="rounded=0;whiteSpace=wrap;html=1;" vertex="1" parent="1">
                    <mxGeometry x="150" y="61" width="340" height="390" as="geometry"/>
                </mxCell>
                <mxCell id="3" value="navbar" style="rounded=0;whiteSpace=wrap;html=1;" vertex="1" parent="1">
                    <mxGeometry x="150" y="61" width="340" height="50" as="geometry"/>
                </mxCell>
                <mxCell id="4" value="footer" style="rounded=0;whiteSpace=wrap;html=1;" vertex="1" parent="1">
                    <mxGeometry x="150" y="401" width="340" height="50" as="geometry"/>
                </mxCell>
                <mxCell id="5" value="logo" style="ellipse;whiteSpace=wrap;html=1;" vertex="1" parent="1">
                    <mxGeometry x="150" y="66" width="60" height="40" as="geometry"/>
                </mxCell>
                <mxCell id="6" value="Home" style="ellipse;whiteSpace=wrap;html=1;" vertex="1" parent="1">
                    <mxGeometry x="220" y="66" width="60" height="40" as="geometry"/>
                </mxCell>
                <mxCell id="7" value="About Us" style="ellipse;whiteSpace=wrap;html=1;" vertex="1" parent="1">
                    <mxGeometry x="280" y="66" width="60" height="40" as="geometry"/>
                </mxCell>
                <mxCell id="8" value="Cart" style="ellipse;whiteSpace=wrap;html=1;" vertex="1" parent="1">
                    <mxGeometry x="425" y="66" width="60" height="40" as="geometry"/>
                </mxCell>
                <mxCell id="10" value="Menu" style="ellipse;whiteSpace=wrap;html=1;" vertex="1" parent="1">
                    <mxGeometry x="340" y="66" width="60" height="40" as="geometry"/>
                </mxCell>
                <mxCell id="11" value="detailed&lt;br&gt;dish Info" style="ellipse;whiteSpace=wrap;html=1;" vertex="1" parent="1">
                    <mxGeometry x="340" y="10" width="60" height="40" as="geometry"/>
                </mxCell>
                <mxCell id="12" value="Hero" style="rounded=0;whiteSpace=wrap;html=1;" vertex="1" parent="1">
                    <mxGeometry x="150" y="111" width="340" height="59" as="geometry"/>
                </mxCell>
            </root>
        </mxGraphModel>
    </diagram>
</mxfile>